<svg width="344" height="173" viewBox="0 0 344 173" fill="none" xmlns="http://www.w3.org/2000/svg">
<path fill-rule="evenodd" clip-rule="evenodd" d="M171.559 16C210.219 16 241.559 47.3401 241.559 86C241.559 124.66 210.219 156 171.559 156C132.899 156 101.559 124.66 101.559 86C101.559 47.3401 132.899 16 171.559 16ZM149.158 42.8798C159.364 42.8798 167.638 51.1535 167.638 61.3598C167.638 71.566 159.364 79.8398 149.158 79.8398C138.951 79.8398 130.678 71.566 130.678 61.3598C130.678 51.1535 138.951 42.8798 149.158 42.8798Z" fill="#131612"/>
<path d="M86.5586 172.425L86.5586 1.52588e-05L1.51058e-05 86.9048L33.931 86.9048L62.2926 58.1674L62.2926 86.9048L62.2926 111.834L62.2926 172.425L86.5586 172.425Z" fill="#131612"/>
<path d="M33.931 86.9048L1.51058e-05 86.9048L1.29264e-05 111.834L62.2926 111.834L62.2926 86.9048L33.931 86.9048Z" fill="#131612"/>
<path d="M343.117 172.425L343.117 0.000137329L256.559 86.9049L290.49 86.9049L318.851 58.1675L318.851 86.9049L318.851 111.834L318.851 172.425L343.117 172.425Z" fill="#131612"/>
<path d="M290.49 86.9049L256.559 86.9049L256.559 111.834L318.851 111.834L318.851 86.9049L290.49 86.9049Z" fill="#131612"/>
</svg>