<svg width="30" height="30" viewBox="0 0 30 30" fill="none" xmlns="http://www.w3.org/2000/svg">
<path d="M11.05 13.5437H8.59375V11.22H10.8225C13.17 11.22 12.88 13.5437 11.05 13.5437ZM18.2862 14.8662H21.5662C21.4225 12.7575 18.6162 12.6037 18.2862 14.8662ZM10.9113 15.3612H8.59375V17.795H10.8738C13.1013 17.7938 12.965 15.3612 10.9113 15.3612ZM30 15C30 23.2838 23.2838 30 15 30C6.71625 30 0 23.2838 0 15C0 6.71625 6.71625 0 15 0C23.2838 0 30 6.71625 30 15ZM13.3037 14.0837C15.3887 13.0175 15.3125 9.1075 11.32 9.04875H6.25V19.9613H10.9637C15.9113 19.9613 15.8275 15.0025 13.3037 14.0837ZM17.5 10.1262H22.5V9.0325H17.5V10.1262ZM23.6788 14.7425C22.9975 10.3612 16.1125 10.1038 16.1125 15.8325C16.1125 21.49 22.5875 20.605 23.5488 17.7825H21.2387C20.4325 18.7175 18.1038 18.4462 18.2337 16.3025H23.7463C23.7575 15.6087 23.735 15.1112 23.6788 14.7425Z" fill="black"/>
</svg>