<svg width="30" height="30" viewBox="0 0 30 30" fill="none" xmlns="http://www.w3.org/2000/svg">
<circle cx="15" cy="15" r="15" fill="#131612"/>
<path d="M17.7683 21.2308C17.7683 21.4144 17.6953 21.5905 17.5655 21.7203C17.4357 21.8501 17.2596 21.9231 17.076 21.9231H12.9221C12.7385 21.9231 12.5624 21.8501 12.4326 21.7203C12.3027 21.5905 12.2298 21.4144 12.2298 21.2308C12.2298 21.0472 12.3027 20.8711 12.4326 20.7412C12.5624 20.6114 12.7385 20.5385 12.9221 20.5385H17.076C17.2596 20.5385 17.4357 20.6114 17.5655 20.7412C17.6953 20.8711 17.7683 21.0472 17.7683 21.2308ZM15.6913 22.6154H14.3067C14.1231 22.6154 13.947 22.6883 13.8172 22.8182C13.6874 22.948 13.6144 23.1241 13.6144 23.3077C13.6144 23.4913 13.6874 23.6674 13.8172 23.7972C13.947 23.9271 14.1231 24 14.3067 24H15.6913C15.875 24 16.0511 23.9271 16.1809 23.7972C16.3107 23.6674 16.3837 23.4913 16.3837 23.3077C16.3837 23.1241 16.3107 22.948 16.1809 22.8182C16.0511 22.6883 15.875 22.6154 15.6913 22.6154ZM21.2298 12.2308C21.2457 13.2867 20.989 14.3289 20.4845 15.2566C19.98 16.1843 19.2447 16.9663 18.3498 17.5269L17.7683 19.3754C17.7201 19.5187 17.6264 19.6423 17.5013 19.7273C17.3763 19.8123 17.2269 19.854 17.076 19.8462H12.9221C12.777 19.8465 12.6354 19.8013 12.5174 19.7168C12.3994 19.6323 12.3109 19.5129 12.2644 19.3754L11.6483 17.5269C10.7533 16.9663 10.0181 16.1843 9.51363 15.2566C9.00913 14.3289 8.75241 13.2867 8.76827 12.2308C8.76827 10.5783 9.42472 8.99345 10.5932 7.82495C11.7617 6.65645 13.3465 6 14.999 6C16.6515 6 18.2364 6.65645 19.4049 7.82495C20.5734 8.99345 21.2298 10.5783 21.2298 12.2308V12.2308ZM19.1529 12.2308C19.1422 11.2709 18.8126 10.3419 18.216 9.58995C17.6194 8.83796 16.7897 8.3057 15.8575 8.07692C15.7666 8.05465 15.6722 8.0505 15.5797 8.06471C15.4871 8.07893 15.3983 8.11122 15.3183 8.15976C15.2383 8.2083 15.1686 8.27212 15.1132 8.34759C15.0578 8.42306 15.0179 8.5087 14.9956 8.59962C14.9733 8.69053 14.9692 8.78494 14.9834 8.87746C14.9976 8.96998 15.0299 9.05879 15.0784 9.13883C15.127 9.21887 15.1908 9.28856 15.2662 9.34393C15.3417 9.3993 15.4274 9.43926 15.5183 9.46154C16.1421 9.6181 16.6985 9.9725 17.1041 10.4717C17.5097 10.9709 17.7427 11.5881 17.7683 12.2308C17.7683 12.4144 17.8412 12.5905 17.971 12.7203C18.1009 12.8501 18.277 12.9231 18.4606 12.9231C18.6442 12.9231 18.8203 12.8501 18.9501 12.7203C19.0799 12.5905 19.1529 12.4144 19.1529 12.2308Z" fill="white"/>
</svg>