<svg width="13" height="16" viewBox="0 0 13 16" fill="none" xmlns="http://www.w3.org/2000/svg">
<path d="M1.36845 15.4659C0.33018 14.8664 -0.0268869 13.5338 0.572561 12.4955L6.50279 2.22409C7.32028 0.808164 9.1373 0.321295 10.5532 1.13878C11.9691 1.95626 12.456 3.77328 11.6385 5.1892L6.99318 13.2352C6.85668 13.4716 6.55452 13.5526 6.31811 13.4161C6.08169 13.2796 6.00073 12.9774 6.13722 12.741L10.7826 4.69502C11.3276 3.75107 11.003 2.53972 10.059 1.99473C9.11508 1.44974 7.90374 1.77432 7.35875 2.71827L1.42852 12.9897C1.10146 13.5562 1.29617 14.2829 1.86264 14.6099C2.42911 14.937 3.15576 14.7423 3.48281 14.1758L8.42467 5.61623C8.53369 5.4274 8.46879 5.18519 8.27996 5.07617C8.09114 4.96715 7.84892 5.03206 7.73991 5.22088L4.08293 11.5549C3.94643 11.7914 3.64427 11.8723 3.40786 11.7358C3.17144 11.5993 3.09048 11.2972 3.22697 11.0608L6.88395 4.72669C7.26546 4.0659 8.11352 3.8388 8.77415 4.22022C9.43477 4.60163 9.66214 5.44962 9.28062 6.11041L4.33876 14.67C3.73932 15.7082 2.40673 16.0653 1.36845 15.4659Z" fill="black"/>
</svg>