<svg width="30" height="30" viewBox="0 0 30 30" fill="none" xmlns="http://www.w3.org/2000/svg">
<circle cx="15" cy="14.9995" r="15" fill="#131612"/>
<path d="M15 5.99951C10.0294 5.99951 6 10.0291 6 14.9998C6 19.9705 10.0294 23.9995 15 23.9995C19.9696 23.9995 24 19.9705 24 14.9998C24 10.0291 19.9696 5.99951 15 5.99951ZM19.4196 15.9901H14.996C14.4513 15.9901 14.0095 15.5485 14.0095 15.0036V9.59371C14.0095 9.04884 14.4513 8.60742 14.996 8.60742C15.5409 8.60742 15.9825 9.04904 15.9825 9.59371V14.0171H19.4196C19.9644 14.0171 20.406 14.4587 20.406 15.0036C20.406 15.5485 19.9644 15.9901 19.4196 15.9901Z" fill="white"/>
</svg>

<svg width="30" height="30" viewBox="0 0 30 30" fill="none" xmlns="http://www.w3.org/2000/svg">
<circle cx="15" cy="15" r="15" fill="#131612"/>
<path d="M15 6C10.0294 6 6 10.0296 6 15.0003C6 19.971 10.0294 24 15 24C19.9696 24 24 19.971 24 15.0003C24 10.0296 19.9696 6 15 6ZM19.4196 15.9906H14.996C14.4513 15.9906 14.0095 15.549 14.0095 15.0041V9.5942C14.0095 9.04932 14.4513 8.6079 14.996 8.6079C15.5409 8.6079 15.9825 9.04952 15.9825 9.5942V14.0176H19.4196C19.9644 14.0176 20.406 14.4592 20.406 15.0041C20.406 15.549 19.9644 15.9906 19.4196 15.9906Z" fill="white"/>
</svg>

<svg width="30" height="30" viewBox="0 0 30 30" fill="none" xmlns="http://www.w3.org/2000/svg">
<circle cx="15" cy="15" r="15" fill="#131612"/>
<path d="M15 6C10.0294 6 6 10.0296 6 15.0003C6 19.971 10.0294 24 15 24C19.9696 24 24 19.971 24 15.0003C24 10.0296 19.9696 6 15 6ZM19.4196 15.9906H14.996C14.4513 15.9906 14.0095 15.549 14.0095 15.0041V9.5942C14.0095 9.04932 14.4513 8.6079 14.996 8.6079C15.5409 8.6079 15.9825 9.04952 15.9825 9.5942V14.0176H19.4196C19.9644 14.0176 20.406 14.4592 20.406 15.0041C20.406 15.549 19.9644 15.9906 19.4196 15.9906Z" fill="white"/>
</svg>
