<svg width="30" height="30" viewBox="0 0 30 30" fill="none" xmlns="http://www.w3.org/2000/svg">
<g clip-path="url(#clip0_515_1696)">
<path d="M14.3188 12.4812C12.545 13.0025 10.4312 13.2712 7.985 13.2887C8.49125 11.2212 9.8825 9.50125 11.7387 8.55875C12.71 9.82875 13.5687 11.1375 14.3188 12.4812ZM15.525 14.8938C15.37 14.5437 15.2075 14.195 15.0363 13.85C13.0087 14.4875 10.585 14.8113 7.78125 14.815L7.77125 15C7.77125 16.755 8.40125 18.365 9.44625 19.6187C11.0288 17.2425 13.06 15.6637 15.525 14.8938ZM10.5625 20.695C12.5237 22.2262 15.1513 22.6812 17.5925 21.74C17.2775 19.88 16.78 18.065 16.105 16.3C13.8313 16.9775 11.9987 18.4425 10.5625 20.695ZM19.4062 9.2825C18.185 8.34 16.66 7.77125 15 7.77125C14.3875 7.77125 13.795 7.85625 13.2275 8.00125C14.1825 9.28625 15.0287 10.6088 15.7712 11.9662C17.3162 11.3112 18.5262 10.4163 19.4062 9.2825ZM30 15C30 23.2838 23.2838 30 15 30C6.71625 30 0 23.2838 0 15C0 6.71625 6.71625 0 15 0C23.2838 0 30 6.71625 30 15ZM23.75 15C23.75 10.1675 19.8312 6.25 15 6.25C10.1687 6.25 6.25 10.1675 6.25 15C6.25 19.8325 10.1687 23.75 15 23.75C19.8312 23.75 23.75 19.8325 23.75 15ZM16.47 13.3138C16.6663 13.7188 16.8512 14.1275 17.0287 14.5387C18.6038 14.2675 20.33 14.2838 22.2075 14.5913C22.1163 12.9763 21.5 11.4988 20.515 10.3375C19.5063 11.5938 18.1525 12.585 16.47 13.3138ZM17.6125 15.9788C18.2238 17.615 18.6938 19.2925 19.0112 21.0075C20.6512 19.9075 21.8125 18.1525 22.1325 16.1213C20.4862 15.8363 18.98 15.7863 17.6125 15.9788Z" fill="black"/>
</g>
<defs>
<clipPath id="clip0_515_1696">
<rect width="30" height="30" fill="white"/>
</clipPath>
</defs>
</svg>