<svg width="30" height="30" viewBox="0 0 30 30" fill="none" xmlns="http://www.w3.org/2000/svg">
<circle cx="15" cy="14.9995" r="15" fill="#131612"/>
<g clip-path="url(#clip0_561_16749)">
<path d="M23.7071 16.4825L22.1946 14.2656C22.116 14.133 22.0767 13.9814 22.0571 13.8299C21.8017 11.1014 19.5821 8.92249 16.7535 8.65723C16.8124 9.22565 16.5767 9.79407 16.1249 10.173L15.1232 10.9878L15.4374 12.2193C15.5749 12.7499 15.4374 13.2993 15.0839 13.7351C14.7303 14.152 14.1999 14.4172 13.6303 14.4172C13.2964 14.4172 12.9624 14.3414 12.6678 14.1709L11.5482 13.5078L10.4482 14.1709C10.4089 14.2088 10.3499 14.2278 10.291 14.2467C10.291 14.2846 10.291 14.3035 10.291 14.3414C10.291 16.2172 11.2142 18.0362 12.6678 19.2299C12.8446 19.3814 12.9428 19.5709 12.9428 19.7983V23.0572C12.9428 23.3225 13.1589 23.5309 13.4142 23.5499L18.5017 23.9667C18.816 23.9857 19.0714 23.7583 19.0714 23.4741V21.1625C19.0714 21.0109 19.2089 20.8972 19.3464 20.8972H21.1142C21.6642 20.8972 22.0964 20.4614 22.0964 19.9499V17.6383C22.0964 17.5435 22.1749 17.4488 22.2928 17.4488H23.1571C23.6874 17.4678 24.0017 16.8993 23.7071 16.4825Z" fill="white"/>
<path d="M11.8813 12.219L13.3741 13.0906C13.7866 13.3369 14.317 12.9769 14.1991 12.5221L13.7866 10.8927C13.7473 10.7032 13.8063 10.4948 13.9634 10.3621L15.2991 9.2632C15.6723 8.96004 15.4759 8.37267 14.9848 8.33477L13.2366 8.20214C13.0402 8.1832 12.8438 8.06951 12.7652 7.88004L12.0973 6.32635C11.9009 5.89056 11.2723 5.89056 11.0759 6.32635L10.408 7.88004C10.3295 8.06951 10.1527 8.1832 9.93661 8.20214L8.1884 8.33477C7.69733 8.35372 7.5009 8.94109 7.87411 9.24425L9.20983 10.3432C9.36697 10.4758 9.4259 10.6842 9.38661 10.8737L8.97411 12.5221C8.85626 12.9769 9.38661 13.3369 9.79911 13.0906L11.292 12.219C11.4884 12.1242 11.7045 12.1242 11.8813 12.219Z" fill="white"/>
</g>
<defs>
<clipPath id="clip0_561_16749">
<rect width="18" height="18" fill="white" transform="translate(6 5.99951)"/>
</clipPath>
</defs>
</svg>