<svg width="102" height="102" viewBox="0 0 102 102" fill="none" xmlns="http://www.w3.org/2000/svg">
<path fill-rule="evenodd" clip-rule="evenodd" d="M51 -1.2088e-05C22.8335 -1.45504e-05 -7.08437e-07 22.8335 -3.17083e-06 51C-5.63323e-06 79.1665 22.8335 102 51 102C79.1665 102 102 79.1665 102 51C102 22.8335 79.1665 -9.62556e-06 51 -1.2088e-05ZM68.687 24.1649C59.5743 24.1649 52.187 31.5522 52.187 40.6649C52.187 49.7776 59.5743 57.1649 68.687 57.1649C77.7997 57.1649 85.187 49.7776 85.187 40.6649C85.187 31.5522 77.7997 24.1649 68.687 24.1649Z" fill="#131612"/>
</svg>
