<svg width="403" height="199" viewBox="0 0 403 199" fill="none" xmlns="http://www.w3.org/2000/svg">
<path d="M0 0V198.74L99.5 97H53.8068L33 118V0H0Z" fill="#131612"/>
<path d="M34.7061 174.85L58.3155 199.001L104.414 199.001L58.3156 151.795L34.7061 174.85Z" fill="#131612"/>
<path d="M190 0V198.74L289.5 97H243.807L223 118V0H190Z" fill="#131612"/>
<path d="M224.706 174.85L248.315 199.001L294.414 199.001L248.316 151.795L224.706 174.85Z" fill="#131612"/>
<path d="M128 97V199H161V97H128Z" fill="#131612"/>
<circle cx="144.5" cy="71.5" r="16.5" fill="#131612"/>
<path fill-rule="evenodd" clip-rule="evenodd" d="M375.824 188.634C367.263 195.139 356.582 199 345 199C316.833 199 294 176.167 294 148C294 119.833 316.833 97 345 97C362.409 97 377.781 105.723 386.983 119.037L375.824 132.762L375.824 188.634ZM375.824 188.634L375.824 198.894H402.165L402.165 100.363L386.983 119.037C392.669 127.263 396 137.243 396 148C396 164.584 388.084 179.32 375.824 188.634ZM343.813 158.335C343.813 167.448 336.426 174.835 327.313 174.835C318.2 174.835 310.813 167.448 310.813 158.335C310.813 149.222 318.2 141.835 327.313 141.835C336.426 141.835 343.813 149.222 343.813 158.335Z" fill="#131612"/>
</svg>
