<svg width="90" height="90" viewBox="0 0 90 90" fill="none" xmlns="http://www.w3.org/2000/svg">
<path d="M89.9472 45.1372C89.9472 69.8851 69.8851 89.9472 45.1372 89.9472C20.3893 89.9472 0.327148 69.8851 0.327148 45.1372C0.327148 20.3893 20.3893 0.327148 45.1372 0.327148C69.8851 0.327148 89.9472 20.3893 89.9472 45.1372Z" fill="#EBFF00"/>
<path d="M24.7583 51.9622L22.3225 51.9622L22.3225 37.0058L24.6087 37.0058L32.6639 47.9453C32.6496 47.6035 32.6425 47.0551 32.6425 46.3001L32.6425 37.0058L35.0783 37.0058L35.0783 51.9622L32.7921 51.9622L24.7369 41.0226C24.7512 41.3645 24.7583 41.9058 24.7583 42.6465L24.7583 51.9622Z" fill="black"/>
<path d="M38.702 37.0058L49.0006 37.0058L49.0006 39.2279L41.1378 39.2279L41.1378 43.3088L48.3596 43.3088L48.3596 45.5309L41.1378 45.5309L41.1378 49.7401L49.1288 49.7401L49.1288 51.9622L38.702 51.9622L38.702 37.0058Z" fill="black"/>
<path d="M69.2371 37.0058L71.9079 37.0058L67.2286 51.9622L64.5578 51.9622L61.1392 40.809L57.7206 51.9622L55.0498 51.9622L50.3919 37.0058L53.0414 37.0058L56.4386 49.0991L60.0709 37.0058L62.2289 37.0058L65.8612 49.0991L69.2371 37.0058Z" fill="black"/>
</svg>
